<svg xmlns:dc="http://purl.org/dc/elements/1.1/" xmlns:cc="http://creativecommons.org/ns#" xmlns:rdf="http://www.w3.org/1999/02/22-rdf-syntax-ns#" xmlns:svg="http://www.w3.org/2000/svg" xmlns="http://www.w3.org/2000/svg" xmlns:sodipodi="http://sodipodi.sourceforge.net/DTD/sodipodi-0.dtd" xmlns:inkscape="http://www.inkscape.org/namespaces/inkscape" width="100" height="100" id="svg2" version="1.1" inkscape:version="0.48.2 r9819" sodipodi:docname="genetic_profiling.svg">
  <defs id="defs4"/>
  <sodipodi:namedview id="base" pagecolor="#ffffff" bordercolor="#666666" borderopacity="1.0" inkscape:pageopacity="0.0" inkscape:pageshadow="2" inkscape:zoom="5.5284893" inkscape:cx="50" inkscape:cy="49.999748" inkscape:document-units="px" inkscape:current-layer="layer1" showgrid="false" inkscape:window-width="1362" inkscape:window-height="724" inkscape:window-x="4" inkscape:window-y="0" inkscape:window-maximized="1"/>
  <metadata id="metadata7">
    <rdf:RDF>
      <cc:Work rdf:about="">
        <dc:format>image/svg+xml</dc:format>
        <dc:type rdf:resource="http://purl.org/dc/dcmitype/StillImage"/>
        <dc:title/>
      </cc:Work>
    </rdf:RDF>
  </metadata>
  <g inkscape:label="Ebene 1" inkscape:groupmode="layer" id="layer1" transform="translate(0,-952.36218)">
    <path style="font-size:medium;font-style:normal;font-variant:normal;font-weight:normal;font-stretch:normal;text-indent:0;text-align:start;text-decoration:none;line-height:normal;letter-spacing:normal;word-spacing:normal;text-transform:none;direction:ltr;block-progression:tb;writing-mode:lr-tb;text-anchor:start;baseline-shift:baseline;color:#000000;fill:#000000;fill-opacity:1;fill-rule:nonzero;stroke:none;stroke-width:10.30000019;marker:none;visibility:visible;display:inline;overflow:visible;enable-background:accumulate;font-family:Sans;-inkscape-font-specification:Sans" d="m 63.093151,958.73398 c -0.34166,0.004 -0.690428,0.0513 -1.035371,0.14369 L 8.0710758,973.3434 c -2.207637,0.59153 -3.5207892,2.86605 -2.9292543,5.07368 l 8.8319775,32.96982 c 0.591533,2.2076 2.869736,3.5208 5.077373,2.9292 l 5.405303,-1.448 0,-1.2528 -5.718494,1.5328 c -1.578051,0.4228 -3.169643,-0.4963 -3.592481,-2.0744 L 6.3098388,978.1039 c -0.4228371,-1.57805 0.5000616,-3.16596 2.0781126,-3.5888 L 62.374655,960.04937 c 0.246571,-0.0661 0.490715,-0.0962 0.733235,-0.0995 1.309608,-0.0176 2.495108,0.84243 2.851877,2.17391 l 3.935149,14.68312 1.260133,0 -4.019895,-14.99999 c -0.499107,-1.8627 -2.197033,-3.09025 -4.042003,-3.07295 z m -1.381723,4.32203 c -0.04687,-0.002 -0.09029,0.006 -0.13633,0.0184 l -7.564477,2.02652 c -0.368343,0.0987 -0.54741,0.61655 -0.40162,1.16065 0.145789,0.54409 0.560175,0.90194 0.928518,0.80324 l 7.560791,-2.02652 c 0.368342,-0.0987 0.551096,-0.61655 0.405306,-1.16065 -0.127566,-0.47608 -0.464074,-0.81172 -0.792188,-0.82166 z m -10.858505,2.90714 c -0.02199,-4.7e-4 -0.04447,9e-4 -0.06632,0.004 -0.02331,0.003 -0.04699,0.009 -0.07001,0.0148 l -7.560792,2.02653 c -0.368343,0.0987 -0.547411,0.61656 -0.401621,1.16065 0.14579,0.5441 0.560176,0.90194 0.928519,0.80324 -0.368343,0.0987 -0.551096,0.61287 -0.405306,1.15696 0.14579,0.5441 0.560175,0.90195 0.928518,0.80325 l 7.564477,-2.02653 c 0.368343,-0.0987 0.54741,-0.61655 0.40162,-1.16065 -0.145789,-0.54409 -0.560175,-0.89825 -0.928518,-0.79956 0.368343,-0.0987 0.551096,-0.61655 0.405306,-1.16065 -0.128136,-0.4782 -0.466018,-0.81449 -0.795873,-0.82166 z m 11.908615,1.01695 c -0.02196,-4.7e-4 -0.04448,9e-4 -0.06632,0.004 -0.0233,0.003 -0.04699,0.009 -0.07001,0.0148 l -7.564476,2.02653 c -0.368343,0.0987 -0.547411,0.61655 -0.401621,1.16065 0.145789,0.54409 0.560176,0.90194 0.928518,0.80324 l 7.564476,-2.02653 c 0.368342,-0.0987 0.547411,-0.61655 0.401621,-1.16064 -0.128135,-0.47822 -0.462739,-0.81449 -0.792188,-0.82167 z m -22.759751,1.89389 c -0.04687,-0.002 -0.09397,0.003 -0.140015,0.0148 l -7.560792,2.02653 c -0.368343,0.0987 -0.54741,0.61655 -0.40162,1.16065 0.145789,0.54409 0.560175,0.90562 0.928518,0.80692 l 7.560791,-2.02652 c 0.368342,-0.0987 0.547411,-0.61656 0.401621,-1.16065 -0.127566,-0.47608 -0.46039,-0.81172 -0.788503,-0.82167 z m 23.81723,2.03758 c -0.04687,-0.002 -0.09397,0.003 -0.140014,0.0148 l -7.564477,2.02653 c -0.368342,0.0987 -0.54741,0.61655 -0.401621,1.16065 0.14579,0.54409 0.560176,0.90562 0.928518,0.80692 l 7.564477,-2.02653 c 0.368342,-0.0987 0.54741,-0.61654 0.401621,-1.16064 -0.127566,-0.47608 -0.46039,-0.81172 -0.788504,-0.82166 z m -34.672051,0.86956 c -0.04677,-0.002 -0.09397,0.006 -0.140015,0.0185 l -7.560791,2.02653 c -0.368343,0.0987 -0.547411,0.61656 -0.401622,1.16064 0.14579,0.5441 0.560176,0.90195 0.928518,0.80325 -0.368342,0.0987 -0.551095,0.61287 -0.405305,1.15696 0.14579,0.5441 0.560176,0.90194 0.928519,0.80324 l 7.564476,-2.02653 c 0.368341,-0.0987 0.543726,-0.61655 0.397936,-1.16064 -0.145789,-0.5441 -0.556492,-0.89826 -0.924834,-0.79956 0.368342,-0.0987 0.543726,-0.61655 0.397937,-1.16065 -0.127566,-0.47608 -0.457386,-0.81153 -0.784819,-0.82166 z m 11.908616,1.01695 c -0.04687,-0.002 -0.09397,0.006 -0.140015,0.0185 l -7.564477,2.02653 c -0.368343,0.0987 -0.54741,0.61655 -0.401621,1.16065 0.113669,0.42421 0.390552,0.73357 0.681651,0.80324 l 0.246867,0 7.564477,-2.02653 c 0.368342,-0.0987 0.54741,-0.61656 0.401621,-1.16065 -0.127566,-0.47608 -0.46039,-0.81171 -0.788503,-0.82167 z m 11.908614,1.02063 c -0.04687,-0.002 -0.09397,0.006 -0.140014,0.0184 l -7.564476,2.02653 c -0.318908,0.0854 -0.494996,0.48441 -0.442152,0.94326 l 4.778921,0 3.754604,-1.0059 c 0.368342,-0.0987 0.54741,-0.61655 0.401621,-1.16065 -0.127566,-0.47608 -0.460389,-0.81171 -0.788504,-0.82166 z m -34.675736,0.87325 c -0.04687,-0.002 -0.09397,0.003 -0.140014,0.0148 l -7.560791,2.02653 c -0.368343,0.0987 -0.547411,0.61655 -0.401621,1.16065 0.14579,0.54409 0.560176,0.90562 0.928519,0.80692 -0.368343,0.0987 -0.547411,0.60918 -0.401622,1.15328 0.14579,0.54409 0.556492,0.90562 0.924834,0.80693 l 7.564475,-2.02653 c 0.368342,-0.0987 0.547412,-0.61656 0.401621,-1.16065 -0.14579,-0.5441 -0.560176,-0.89826 -0.928518,-0.79956 0.368342,-0.0987 0.547411,-0.61655 0.401622,-1.16064 -0.127566,-0.47608 -0.46039,-0.81172 -0.788505,-0.82168 z m 46.580667,0.14738 c -0.04687,-0.002 -0.09397,0.006 -0.140014,0.0185 l -7.273393,1.94916 7.844505,0 c 0.337935,-0.12741 0.500804,-0.62449 0.361091,-1.14591 -0.127566,-0.47609 -0.464075,-0.81172 -0.792189,-0.82167 z m -22.763436,1.8902 c -0.04687,-0.002 -0.09029,0.003 -0.13633,0.0148 l -0.232129,0.0626 0.630065,0 c -0.08549,-0.0461 -0.173066,-0.0747 -0.261606,-0.0774 z m -12.055999,1.2933 c -2.285514,0 -4.145171,1.85965 -4.145171,4.14516 l 0,34.1305 c 0,2.2854 1.859657,4.1451 4.145171,4.1451 l 27.523934,0 c -0.26965,-0.3974 -0.523179,-0.8013 -0.762711,-1.2122 l -26.761223,0 c -1.633718,0 -2.929254,-1.2993 -2.929254,-2.9329 l 0,-34.1305 c 0,-1.63371 1.295536,-2.92924 2.929254,-2.92924 l 55.891645,0 c 1.633716,0 2.932938,1.29553 2.932938,2.92924 l 0,10.86588 c 0.297,0.26516 0.58833,0.54044 0.873243,0.82535 0.11547,0.11547 0.226782,0.23256 0.338985,0.35004 l 0,-12.04127 c 0,-2.28551 -1.859661,-4.14516 -4.145166,-4.14516 l -55.891645,0 z m -5.545317,3.40456 -0.954311,0.25424 c -0.368342,0.0987 -0.54741,0.61656 -0.401621,1.16064 0.14579,0.5441 0.560175,0.90195 0.928518,0.80325 l 0.375829,-0.0995 0,-1.37805 c 0,-0.25084 0.01791,-0.49851 0.05159,-0.7406 z m 7.100217,0.52322 c -0.381337,0 -0.68902,0.45365 -0.68902,1.01694 0,0.5633 0.307683,1.01695 0.68902,1.01695 l 7.829766,0 c 0.381337,0 0.689021,-0.45365 0.689021,-1.01695 0,-0.56329 -0.307684,-1.01694 -0.689021,-1.01694 l -7.829766,0 z m 11.238019,0 c -0.381337,0 -0.68902,0.45365 -0.68902,1.01694 0,0.5633 0.307683,1.01695 0.68902,1.01695 -0.381337,0 -0.68902,0.44998 -0.68902,1.01327 0,0.56329 0.307683,1.01694 0.68902,1.01694 l 7.829766,0 c 0.381337,0 0.68902,-0.45365 0.68902,-1.01694 0,-0.56329 -0.307683,-1.01327 -0.68902,-1.01327 0.381337,0 0.68902,-0.45365 0.68902,-1.01695 0,-0.56329 -0.307683,-1.01694 -0.68902,-1.01694 l -7.829766,0 z m 11.238018,0 c -0.381337,0 -0.689019,0.45365 -0.689019,1.01694 0,0.5633 0.307682,1.01695 0.689019,1.01695 l 7.829767,0 c 0.381337,0 0.68902,-0.45365 0.68902,-1.01695 0,-0.56329 -0.307683,-1.01694 -0.68902,-1.01694 l -7.829767,0 z m 11.238019,0 c -0.381337,0 -0.685335,0.45365 -0.685335,1.01694 0,0.5633 0.303998,1.01695 0.685335,1.01695 -0.381337,0 -0.685335,0.44998 -0.685335,1.01327 0,0.56329 0.303998,1.01694 0.685335,1.01694 l 7.829767,0 c 0.381336,0 0.68902,-0.45365 0.68902,-1.01694 0,-0.56329 -0.307684,-1.01327 -0.68902,-1.01327 0.381336,0 0.68902,-0.45365 0.68902,-1.01695 0,-0.56329 -0.307684,-1.01694 -0.68902,-1.01694 l -7.829767,0 z m 11.241703,0 c -0.381336,0 -0.68902,0.45365 -0.68902,1.01694 0,0.5633 0.307684,1.01695 0.68902,1.01695 -0.381336,0 -0.68902,0.44998 -0.68902,1.01327 0,0.56329 0.307684,1.01694 0.68902,1.01694 l 7.829764,0 c 0.381339,0 0.685341,-0.45365 0.685341,-1.01694 0,-0.56329 -0.304002,-1.01327 -0.685341,-1.01327 0.381339,0 0.685341,-0.45365 0.685341,-1.01695 0,-0.56329 -0.304002,-1.01694 -0.685341,-1.01694 l -7.829764,0 z m -56.167986,0.5969 c -0.04687,-0.002 -0.09397,0.003 -0.140015,0.0148 l -7.56079,2.02653 c -0.368343,0.0987 -0.543726,0.61655 -0.397937,1.16065 0.14579,0.54409 0.556491,0.90193 0.924833,0.80324 l 7.560792,-2.02653 c 0.368343,-0.0987 0.551095,-0.61656 0.405305,-1.16065 -0.127566,-0.47608 -0.464074,-0.80803 -0.792188,-0.81799 z m 4.060425,3.13191 c -0.264217,0.18254 -0.378419,0.62718 -0.254237,1.09063 0.05365,0.20024 0.142889,0.37585 0.254237,0.51217 l 0,-1.6028 z m 7.151802,0.33529 c -0.381337,0 -0.68902,0.45366 -0.68902,1.01696 0,0.56328 0.307683,1.01694 0.68902,1.01694 l 7.829766,0 c 0.381337,0 0.689021,-0.45366 0.689021,-1.01694 0,-0.5633 -0.307684,-1.01696 -0.689021,-1.01696 l -7.829766,0 z m 22.476037,0 c -0.381337,0 -0.689019,0.45366 -0.689019,1.01696 0,0.56328 0.307682,1.01694 0.689019,1.01694 l 7.829767,0 c 0.381337,0 0.68902,-0.45366 0.68902,-1.01694 0,-0.5633 -0.307683,-1.01696 -0.68902,-1.01696 l -7.829767,0 z M 21.44616,986.4753 c -0.04687,-0.002 -0.09397,0.006 -0.140015,0.0185 l -7.560791,2.02653 c -0.368343,0.0987 -0.54741,0.61287 -0.401621,1.15696 0.14579,0.5441 0.556491,0.90562 0.924833,0.80693 l 7.564477,-2.02653 c 0.368342,-0.0987 0.54741,-0.61656 0.40162,-1.16064 -0.127566,-0.47609 -0.46039,-0.81172 -0.788503,-0.82168 z m 53.463492,2.12601 c -5.145222,-7.1e-4 -10.290725,1.95985 -14.211488,5.88062 -7.12758,7.12757 -7.775163,18.30667 -1.945467,26.17177 l -16.506991,16.5069 c -0.791665,0.7917 -1.334367,1.6954 -1.569638,2.605 -0.235271,0.9096 -0.151332,1.9268 0.541635,2.6198 0.692966,0.6929 1.710126,0.7769 2.619748,0.5416 0.909623,-0.2353 1.813345,-0.7779 2.60501,-1.5697 l 16.506992,-16.5069 c 7.864758,5.8324 19.042981,5.1831 26.171683,-1.9455 7.820235,-7.8202 7.836993,-20.5065 0.05895,-28.35297 -0.0027,-0.003 -0.0045,-0.008 -0.0072,-0.0111 a 0.88439154,0.88439154 0 0 0 -0.05157,-0.0553 c -3.920688,-3.92069 -9.066257,-5.88364 -14.211484,-5.88431 z m -43.30506,1.48121 c -0.381337,0 -0.68902,0.45366 -0.68902,1.01695 0,0.56328 0.307683,1.01695 0.68902,1.01695 l 7.829766,0 c 0.381337,0 0.689021,-0.45367 0.689021,-1.01695 0,-0.56329 -0.307684,-1.01695 -0.689021,-1.01695 l -7.829766,0 z m 11.238019,0 c -0.381337,0 -0.68902,0.45366 -0.68902,1.01695 0,0.56328 0.307683,1.01695 0.68902,1.01695 l 7.829766,0 c 0.381337,0 0.68902,-0.45367 0.68902,-1.01695 0,-0.56329 -0.307683,-1.01695 -0.68902,-1.01695 l -7.829766,0 z m 11.238018,0 c -0.381337,0 -0.689019,0.45366 -0.689019,1.01695 0,0.56328 0.307682,1.01695 0.689019,1.01695 -0.381337,0 -0.689019,0.45366 -0.689019,1.01694 0,0.56329 0.307682,1.01696 0.689019,1.01696 l 5.703755,0 c 0.09491,-0.0987 0.19017,-0.19754 0.287399,-0.29477 0.622068,-0.62207 1.275645,-1.19662 1.952836,-1.72439 -0.03706,-0.009 -0.07538,-0.0148 -0.114223,-0.0148 0.058,0 0.115727,-0.01 0.169491,-0.0294 0.0022,-0.002 0.0052,-0.002 0.0074,-0.004 0.08711,-0.0673 0.173678,-0.13316 0.261607,-0.19897 0.153054,-0.18624 0.250553,-0.46797 0.250553,-0.78481 0,-0.5633 -0.307683,-1.01696 -0.68902,-1.01696 l -7.829767,0 z m 11.068527,0.0331 c -0.04798,0.0178 -0.09308,0.0418 -0.13633,0.0737 0.04576,-0.0245 0.09043,-0.0496 0.13633,-0.0737 z m 9.760496,0.24319 c 4.688879,5.9e-4 9.375874,1.79297 12.958729,5.37589 7.16571,7.1656 7.165701,18.7554 0,25.9211 -6.6951,6.6951 -17.252397,7.1347 -24.45467,1.319 -0.506259,-0.4087 -0.995868,-0.8484 -1.466469,-1.319 -0.437752,-0.4378 -0.850074,-0.8908 -1.23434,-1.3596 a 0.88439154,0.88439154 0 0 0 -0.0037,-0.01 0.88439154,0.88439154 0 0 0 -0.17686,-0.2211 c -5.713811,-7.1992 -5.24276,-17.6754 1.414884,-24.3331 3.582783,-3.58277 8.273531,-5.37646 12.96241,-5.37582 z m -52.413382,0.0442 c -0.02196,-4.7e-4 -0.04448,9e-4 -0.06632,0.004 -0.0233,0.003 -0.04699,0.009 -0.07001,0.0148 l -7.564476,2.02652 c -0.368343,0.0987 -0.543726,0.61656 -0.397937,1.16065 0.145791,0.5441 0.556492,0.90195 0.924834,0.80324 l 7.564476,-2.02652 c 0.368342,-0.0987 0.547411,-0.61655 0.401621,-1.16065 -0.128136,-0.4782 -0.462738,-0.81449 -0.792188,-0.82166 z m 52.413382,1.29698 c -4.352149,-7.1e-4 -8.703381,1.65843 -12.019153,4.97421 -6.631543,6.6316 -6.631543,17.4104 0,24.042 6.631543,6.6316 17.406939,6.6276 24.038309,0 6.612714,-6.6127 6.627096,-17.3434 0.05157,-23.9793 a 0.88439154,0.88439154 0 0 0 -0.05157,-0.059 c -3.31569,-3.31576 -7.667007,-4.97354 -12.019156,-4.97421 z m 0,1.75756 c 0.455012,6e-5 0.909737,0.022 1.363301,0.0626 -0.139092,0.2101 -0.224761,0.49601 -0.224761,0.8143 0,0.64344 0.349221,1.16065 0.784819,1.16065 l 5.677967,0 c 1.090332,0.63 2.121579,1.4027 3.061899,2.3249 l -8.739866,0 c -0.435598,0 -0.784819,0.5172 -0.784819,1.1607 0,0.6435 0.349221,1.1607 0.784819,1.1607 l 8.9462,0 c 0.4356,0 0.781137,-0.5172 0.781137,-1.1607 0,-0.034 -0.0018,-0.066 -0.0036,-0.099 5.062815,5.9891 4.770549,14.9347 -0.876933,20.5822 -0.932616,0.9327 -1.955259,1.7174 -3.039795,2.3581 l -15.467934,0 c -1.081893,-0.6396 -2.101858,-1.4239 -3.032422,-2.3545 -1.645268,-1.6452 -2.834134,-3.5712 -3.570374,-5.6227 0.191688,-0.2111 0.316875,-0.5459 0.316875,-0.9285 0,-0.6434 -0.349222,-1.1606 -0.784819,-1.1606 l -0.117907,0 c -0.157026,-0.7681 -0.257289,-1.5449 -0.294767,-2.325 l 0.412674,0 c 0.435597,0 0.784819,-0.5172 0.784819,-1.1606 0,-0.6435 -0.349222,-1.1607 -0.784819,-1.1607 l -0.346351,0 c 0.305079,-2.9267 1.456884,-5.7823 3.456151,-8.1724 -3.54e-4,0.015 0,0.029 0,0.044 0,0.6434 0.345536,1.1606 0.781134,1.1606 l 8.9462,0 c 0.435597,0 0.784819,-0.5172 0.784819,-1.1606 0,-0.6435 -0.349222,-1.1607 -0.784819,-1.1607 l -8.695647,0 c 0.939247,-0.9218 1.96907,-1.6953 3.058214,-2.325 l 5.637433,0 c 0.435597,0 0.784819,-0.51714 0.784819,-1.16058 0,-0.31616 -0.08363,-0.60088 -0.221076,-0.81061 0.468179,-0.0432 0.937745,-0.0664 1.407516,-0.0663 z m -43.30506,0.6927 c -0.381337,0 -0.68902,0.45366 -0.68902,1.01695 0,0.5633 0.307683,1.017 0.68902,1.017 -0.381337,0 -0.68902,0.4536 -0.68902,1.0169 0,0.5633 0.307683,1.017 0.68902,1.017 -0.381337,0 -0.68902,0.4536 -0.68902,1.0169 0,0.5633 0.307683,1.0169 0.68902,1.0169 l 7.829766,0 c 0.381337,0 0.689021,-0.4536 0.689021,-1.0169 0,-0.5633 -0.307684,-1.0169 -0.689021,-1.0169 0.381337,0 0.689021,-0.4537 0.689021,-1.017 0,-0.5633 -0.307684,-1.0169 -0.689021,-1.0169 0.381337,0 0.689021,-0.4537 0.689021,-1.017 0,-0.56329 -0.307684,-1.01695 -0.689021,-1.01695 l -7.829766,0 z m 11.238019,0 c -0.381337,0 -0.68902,0.45366 -0.68902,1.01695 0,0.5633 0.307683,1.017 0.68902,1.017 l 7.829766,0 c 0.381337,0 0.68902,-0.4537 0.68902,-1.017 0,-0.56329 -0.307683,-1.01695 -0.68902,-1.01695 l -7.829766,0 z m -19.288862,0.18423 c -0.04687,-0.002 -0.09397,0.003 -0.140015,0.0148 l -7.564476,2.02652 c -0.368341,0.099 -0.543726,0.6165 -0.397936,1.1606 0.145789,0.5441 0.55649,0.9056 0.924833,0.807 -0.368343,0.099 -0.547411,0.6091 -0.401621,1.1532 0.14579,0.5441 0.560175,0.9057 0.928518,0.807 -0.368343,0.099 -0.54741,0.6129 -0.401621,1.1569 0.14579,0.5442 0.556492,0.9057 0.924834,0.807 l 7.03021,-1.8828 -0.0037,-3.9352 c -0.159358,-0.1251 -0.339901,-0.1788 -0.512158,-0.1327 0.368343,-0.099 0.54741,-0.6165 0.40162,-1.1606 -0.127566,-0.47607 -0.460389,-0.81171 -0.788503,-0.82165 z m 30.52688,1.84972 c -0.381337,0 -0.689019,0.4536 -0.689019,1.0169 0,0.5633 0.307682,1.017 0.689019,1.017 l 2.64554,0 c 0.401056,-0.6977 0.845569,-1.3768 1.333824,-2.0339 l -3.979364,0 z m -11.238018,4.0677 c -0.381337,0 -0.68902,0.4537 -0.68902,1.017 0,0.5633 0.307683,1.0169 0.68902,1.0169 l 7.829766,0 c 0.381337,0 0.68902,-0.4536 0.68902,-1.0169 0,-0.5633 -0.307683,-1.017 -0.68902,-1.017 l -7.829766,0 z m 11.238018,0 c -0.381337,0 -0.689019,0.4537 -0.689019,1.017 0,0.5633 0.307682,1.0169 0.689019,1.0169 l 0.858511,0 c 0.218307,-0.6881 0.471493,-1.367 0.762711,-2.0339 l -1.621222,0 z m -22.476037,2.0339 c -0.381337,0 -0.68902,0.4537 -0.68902,1.017 0,0.5633 0.307683,1.0169 0.68902,1.0169 l 7.829766,0 c 0.381337,0 0.689021,-0.4536 0.689021,-1.0169 0,-0.5633 -0.307684,-1.017 -0.689021,-1.017 l -7.829766,0 z m 32.387601,0.1806 c -0.435598,0 -0.781135,0.5172 -0.781135,1.1607 0,0.6434 0.345537,1.1606 0.781135,1.1606 -0.435598,0 -0.781135,0.5135 -0.781135,1.157 0,0.6434 0.345537,1.1643 0.781135,1.1643 -0.435598,0 -0.781135,0.5172 -0.781135,1.1607 0,0.6434 0.345537,1.1606 0.781135,1.1606 l 8.9462,0 c 0.435597,0 0.784819,-0.5172 0.784819,-1.1606 0,-0.6435 -0.349222,-1.1607 -0.784819,-1.1607 0.435597,0 0.784819,-0.5209 0.784819,-1.1643 0,-0.6435 -0.349222,-1.157 -0.784819,-1.157 0.435597,0 0.784819,-0.5172 0.784819,-1.1606 0,-0.6435 -0.349222,-1.1607 -0.784819,-1.1607 l -8.9462,0 z m 12.840818,0 c -0.435598,0 -0.784819,0.5172 -0.784819,1.1607 0,0.6434 0.349221,1.1606 0.784819,1.1606 -0.435598,0 -0.784819,0.5135 -0.784819,1.157 0,0.6434 0.349221,1.1643 0.784819,1.1643 -0.435598,0 -0.784819,0.5172 -0.784819,1.1607 0,0.6434 0.349221,1.1606 0.784819,1.1606 l 8.9462,0 c 0.4356,0 0.781137,-0.5172 0.781137,-1.1606 0,-0.6435 -0.345537,-1.1607 -0.781137,-1.1607 0.4356,0 0.781137,-0.5209 0.781137,-1.1643 0,-0.6435 -0.345537,-1.157 -0.781137,-1.157 0.4356,0 0.781137,-0.5172 0.781137,-1.1606 0,-0.6435 -0.345537,-1.1607 -0.781137,-1.1607 l -8.9462,0 z m -52.376536,0.022 -6.503313,1.7428 c -0.368343,0.099 -0.543726,0.6166 -0.397936,1.1607 0.14579,0.5441 0.55649,0.9019 0.924833,0.8032 l 5.976416,-1.5991 0,-2.1076 z m 18.386136,1.8313 c -0.381337,0 -0.68902,0.4499 -0.68902,1.0132 0,0.5633 0.307683,1.017 0.68902,1.017 l 7.829766,0 c 0.381337,0 0.68902,-0.4537 0.68902,-1.017 0,-0.5633 -0.307683,-1.0132 -0.68902,-1.0132 l -7.829766,0 z m -11.238019,2.0302 c -0.381337,0 -0.68902,0.4536 -0.68902,1.0169 0,0.5633 0.307683,1.0169 0.68902,1.0169 l 7.829766,0 c 0.381337,0 0.689021,-0.4536 0.689021,-1.0169 0,-0.5633 -0.307684,-1.0169 -0.689021,-1.0169 l -7.829766,0 z m 22.476037,0 c -0.381337,0 -0.689019,0.4536 -0.689019,1.0169 0,0.502 0.244337,0.9141 0.567427,0.9986 0.0087,-0.6731 0.04852,-1.3459 0.121592,-2.0155 z m -29.624154,0.3537 -5.449518,1.4554 c -0.368343,0.099 -0.543726,0.6166 -0.397937,1.1606 0.14579,0.5442 0.556491,0.9057 0.924834,0.807 l 4.922621,-1.3192 0,-2.1038 z m 18.386136,1.6801 c -0.381337,0 -0.68902,0.4537 -0.68902,1.017 0,0.5633 0.307683,1.0169 0.68902,1.0169 -0.381337,0 -0.68902,0.4537 -0.68902,1.017 0,0.5633 0.307683,1.0169 0.68902,1.0169 l 7.829766,0 c 0.381337,0 0.68902,-0.4536 0.68902,-1.0169 0,-0.5633 -0.307683,-1.017 -0.68902,-1.017 0.381337,0 0.68902,-0.4536 0.68902,-1.0169 0,-0.5633 -0.307683,-1.017 -0.68902,-1.017 l -7.829766,0 z m 11.16801,2.0376 c -0.348014,0.052 -0.619011,0.4852 -0.619011,1.0133 0,0.5633 0.307682,1.0169 0.689019,1.0169 l 0.22476,0 c -0.123466,-0.6731 -0.218856,-1.35 -0.276345,-2.0302 -0.0061,7e-4 -0.01233,-9e-4 -0.01842,0 z m 9.981572,1.3338 c -0.435598,0 -0.781135,0.5173 -0.781135,1.1608 0,0.6434 0.345537,1.1606 0.781135,1.1606 l 8.9462,0 c 0.435597,0 0.784819,-0.5172 0.784819,-1.1606 0,-0.6435 -0.349222,-1.1608 -0.784819,-1.1608 l -8.9462,0 z m 12.840818,0 c -0.435598,0 -0.784819,0.5173 -0.784819,1.1608 0,0.6434 0.349221,1.1606 0.784819,1.1606 l 8.9462,0 c 0.4356,0 0.781137,-0.5172 0.781137,-1.1606 0,-0.6435 -0.345537,-1.1608 -0.781137,-1.1608 l -8.9462,0 z m -45.228419,0.6964 c -0.381337,0 -0.68902,0.4537 -0.68902,1.017 0,0.5633 0.307683,1.017 0.68902,1.017 -0.381337,0 -0.68902,0.4536 -0.68902,1.0169 0,0.5633 0.307683,1.017 0.68902,1.017 l 7.829766,0 c 0.381337,0 0.689021,-0.4537 0.689021,-1.017 0,-0.5633 -0.307684,-1.0169 -0.689021,-1.0169 0.381337,0 0.689021,-0.4537 0.689021,-1.017 0,-0.5633 -0.307684,-1.017 -0.689021,-1.017 l -7.829766,0 z m -7.873982,1.3044 -1.355932,0.3648 -3.264552,12.1849 c -0.591536,2.2077 0.721617,4.4859 2.929253,5.0774 l 19.506253,5.2284 c 0.02483,-0.025 0.04845,-0.052 0.07369,-0.077 l 0.917465,-0.9174 -20.180534,-5.409 c -1.578051,-0.4229 -2.497265,-2.0107 -2.074428,-3.5888 l 3.448783,-12.8629 z m 19.112001,0.7296 c -0.381337,0 -0.68902,0.4536 -0.68902,1.0169 0,0.5633 0.307683,1.017 0.68902,1.017 l 7.829766,0 c 0.381337,0 0.68902,-0.4537 0.68902,-1.017 0,-0.5633 -0.307683,-1.0169 -0.68902,-1.0169 l -7.829766,0 z m 11.238018,0 c -0.381337,0 -0.689019,0.4536 -0.689019,1.0169 0,0.5633 0.307682,1.017 0.689019,1.017 l 1.400147,0 c -0.269023,-0.6675 -0.498518,-1.3475 -0.69639,-2.0339 l -0.703757,0 z m 9.911564,1.916 c -0.435598,0 -0.781135,0.5171 -0.781135,1.1606 0,0.6434 0.345537,1.1606 0.781135,1.1606 l 8.9462,0 c 0.435597,0 0.784819,-0.5172 0.784819,-1.1606 0,-0.6435 -0.349222,-1.1606 -0.784819,-1.1606 l -8.9462,0 z m 12.840818,0 c -0.435598,0 -0.784819,0.5171 -0.784819,1.1606 0,0.6434 0.349221,1.1606 0.784819,1.1606 l 8.9462,0 c 0.4356,0 0.781137,-0.5172 0.781137,-1.1606 0,-0.6435 -0.345537,-1.1606 -0.781137,-1.1606 l -8.9462,0 z m -44.487816,5.2579 1.882829,0.5048 c 0.294198,0.079 0.617984,-0.1379 0.810611,-0.5048 l -2.69344,0 z m 4.852614,0 c -0.03169,0.07 -0.0598,0.1454 -0.08106,0.2247 -0.145788,0.5441 0.03327,1.062 0.40162,1.1606 l 7.564477,2.0266 c 0.368343,0.099 0.78273,-0.2592 0.928518,-0.8032 0.14579,-0.5441 -0.03696,-1.062 -0.405305,-1.1607 l -5.401619,-1.448 -3.00663,0 z m 18.721433,0 0.453206,0.1215 0.121592,-0.1215 -0.574798,0 z m -6.632273,0.35 c -0.328114,0.01 -0.660938,0.3419 -0.788504,0.818 -0.145789,0.5441 0.03328,1.0619 0.401622,1.1606 -0.368342,-0.099 -0.782729,0.2592 -0.928519,0.8033 -0.14579,0.5441 0.03328,1.0619 0.401621,1.1606 l 3.017685,0.8106 3.323506,-3.3235 -5.287396,-1.4149 c -0.04604,-0.013 -0.09314,-0.016 -0.140015,-0.014 z m 10.58953,0.023 c 0.264713,0.298 0.536162,0.5914 0.821665,0.8769 0.284264,0.2843 0.576576,0.5543 0.873249,0.818 l -16.37803,16.3817 c -0.593994,0.594 -1.270957,0.9728 -1.798083,1.1091 -0.527127,0.1364 -0.80532,0.042 -0.928518,-0.081 -0.123198,-0.1232 -0.217401,-0.4014 -0.08106,-0.9285 0.136339,-0.5271 0.515069,-1.2041 1.109063,-1.7981 l 16.381717,-16.378 z m -33.879863,0.051 c -0.328114,0.01 -0.660937,0.3456 -0.788503,0.8217 -0.145791,0.544 0.03328,1.0619 0.40162,1.1606 l 7.564476,2.0265 c 0.368343,0.099 0.78273,-0.2591 0.928519,-0.8032 0.14579,-0.5441 -0.03328,-1.0619 -0.401621,-1.1607 l -7.564476,-2.0265 c -0.04604,-0.013 -0.09314,-0.02 -0.140015,-0.019 z m 44.263056,1.1238 9.288866,0 c -3.017027,0.9643 -6.272452,0.9655 -9.288866,0 z m -45.313166,2.8039 c -0.328114,0.01 -0.660938,0.342 -0.788504,0.8181 -0.14579,0.5441 0.03328,1.0619 0.401622,1.1606 l 7.560791,2.0265 c 0.368343,0.099 0.782729,-0.2591 0.928518,-0.8032 0.14579,-0.5441 -0.03327,-1.0619 -0.40162,-1.1607 l -7.560792,-2.0265 c -0.04604,-0.013 -0.09314,-0.016 -0.140015,-0.014 z m 60.460544,0.8549 c -0.479187,0.2763 -0.967581,0.5312 -1.462788,0.7664 l -4.012523,14.9705 c -0.422839,1.5781 -2.010748,2.4936 -3.588799,2.0707 l -25.210008,-6.7538 -0.991156,0.9948 25.884288,6.9344 c 2.207636,0.5916 4.485842,-0.7253 5.077375,-2.9329 l 4.303611,-16.0501 z m -49.08251,0.092 c -0.328113,0.01 -0.660938,0.3419 -0.788504,0.818 -0.14579,0.5441 0.03696,1.0619 0.405305,1.1607 -0.368343,-0.099 -0.782728,0.2591 -0.928518,0.8032 -0.145789,0.5441 0.03328,1.0619 0.401621,1.1607 l 7.560791,2.0265 c 0.368342,0.099 0.782729,-0.2592 0.928519,-0.8033 0.14579,-0.5441 -0.03327,-1.062 -0.401621,-1.1606 0.368343,0.099 0.782728,-0.2592 0.928518,-0.8032 0.14579,-0.5442 -0.03328,-1.062 -0.401621,-1.1607 l -7.564475,-2.0265 c -0.04604,-0.013 -0.09314,-0.016 -0.140015,-0.014 z m 25.32423,0.4496 -1.661753,1.658 6.805449,1.8239 c 0.368343,0.099 0.782729,-0.2628 0.928518,-0.8069 0.145789,-0.5441 -0.03327,-1.0584 -0.40162,-1.157 l -5.670594,-1.518 z m -13.942513,0.4937 c -0.328114,0.01 -0.660937,0.3455 -0.788503,0.8216 -0.14579,0.5442 0.03328,1.062 0.401621,1.1607 l 0.747973,0.2026 1.665437,-1.6654 -1.886513,-0.5048 c -0.04604,-0.013 -0.09314,-0.016 -0.140015,-0.014 z m 31.90492,1.227 c -0.742303,0.1681 -1.490238,0.2965 -2.243919,0.3831 l 1.337508,0.3574 c 0.353857,0.095 0.746794,-0.2324 0.906411,-0.7405 z m -9.137799,0.6632 c -0.328114,0.01 -0.660938,0.3419 -0.788504,0.8179 -0.145789,0.5442 0.03328,1.062 0.401622,1.1607 l 7.564475,2.0265 c 0.368343,0.099 0.779045,-0.2591 0.924834,-0.8032 0.14579,-0.5441 -0.02959,-1.062 -0.397936,-1.1607 l -7.564477,-2.0264 c -0.04604,-0.013 -0.09314,-0.016 -0.140014,-0.014 z m -12.435512,2.9845 c -0.327433,0.01 -0.660938,0.3456 -0.788504,0.8217 -0.145789,0.544 0.03328,1.0545 0.401621,1.1532 -0.368342,-0.099 -0.779044,0.2628 -0.924834,0.807 -0.145789,0.544 0.02959,1.0619 0.397937,1.1606 l 7.564476,2.0229 c 0.368341,0.099 0.782728,-0.2592 0.928518,-0.8033 0.14579,-0.544 -0.03696,-1.0619 -0.405306,-1.1606 0.368343,0.099 0.782729,-0.2555 0.928519,-0.7996 0.14579,-0.5441 -0.03328,-1.062 -0.401622,-1.1606 l -7.564475,-2.0266 c -0.04604,-0.013 -0.08956,-0.016 -0.13633,-0.014 z m -3.282975,1.5217 -1.407517,1.4075 0.482683,0.129 c 0.368342,0.099 0.786413,-0.2591 0.932202,-0.8033 0.07127,-0.2659 0.0617,-0.5257 -0.0074,-0.7332 z m 14.14148,1.3855 c -0.328113,0.01 -0.664622,0.3456 -0.792188,0.8216 -0.14579,0.5441 0.03696,1.0583 0.405305,1.157 -0.368341,-0.099 -0.782728,0.2591 -0.928519,0.8032 -0.145789,0.5441 0.03328,1.062 0.401622,1.1607 l 7.564476,2.0264 c 0.368341,0.099 0.779045,-0.2591 0.924834,-0.8031 0.145789,-0.5442 -0.03328,-1.062 -0.401621,-1.1607 0.368343,0.099 0.779045,-0.2592 0.924833,-0.8032 0.14579,-0.5441 -0.02959,-1.0583 -0.397936,-1.157 l -7.564476,-2.0266 c -0.04604,-0.013 -0.08946,-0.02 -0.13633,-0.019 z" id="path6637" inkscape:connector-curvature="0"/>
  </g>
</svg>